# xmcd CD database file generated by Grip 2.94
# 
# Track frame offsets:
#       150
#       10174
#       23157
#       33750
#       49680
#       61151
#       75226
#       88586
#       98962
#       110247
#       117998
#       126074
#       141236
#       151083
#       167837
#       182983
# 
# Disc length: 2553 seconds
# 
# Revision: 3
# Processed by: cddbd v1.4b41PL1 Copyright (c) Steve Scherf et al.
# Submitted via: Grip 2.94
# 
DISCID=c609f710
DTITLE=Rangers - Rangers na cestach
DYEAR=1900
DGENRE=
TTITLE0=Ta zem je tva zem
TTITLE1=Tulak
TTITLE2=Zeneni, zeneni
TTITLE3=Bezci dlouhych trati
TTITLE4=Dej boze muj
TTITLE5=Fata morgana
TTITLE6=Colorado
TTITLE7=800 mil
TTITLE8=Hi Jolly
TTITLE9=Plavci
TTITLE10=Big Rock Candy Mountain
TTITLE11=Poutnik s kytarou
TTITLE12=Zvednete kotvy
TTITLE13=Znam mista casem zavata
TTITLE14=Dvojnici
TTITLE15=Zlaty zvony
EXTD=
EXTT0=
EXTT1=
EXTT2=
EXTT3=
EXTT4=
EXTT5=
EXTT6=
EXTT7=
EXTT8=
EXTT9=
EXTT10=
EXTT11=
EXTT12=
EXTT13=
EXTT14=
EXTT15=
PLAYORDER=
